<svg xmlns="http://www.w3.org/2000/svg" width="33.75" height="27" viewBox="0 0 33.75 27">
  <path id="Icon_awesome-city" data-name="Icon awesome-city" d="M32.484,10.125H25.313V1.266A1.265,1.265,0,0,0,24.047,0H16.453a1.265,1.265,0,0,0-1.266,1.266v3.8H11.813V.844A.844.844,0,0,0,10.969,0h-.844a.844.844,0,0,0-.844.844V5.063H5.906V.844A.844.844,0,0,0,5.063,0H4.219a.844.844,0,0,0-.844.844V5.063H1.266A1.265,1.265,0,0,0,0,6.328V25.313A1.688,1.688,0,0,0,1.688,27H32.063a1.688,1.688,0,0,0,1.688-1.687V11.391A1.266,1.266,0,0,0,32.484,10.125ZM6.75,21.3a.633.633,0,0,1-.633.633H4.008a.633.633,0,0,1-.633-.633V19.2a.633.633,0,0,1,.633-.633H6.117a.633.633,0,0,1,.633.633Zm0-5.062a.633.633,0,0,1-.633.633H4.008a.633.633,0,0,1-.633-.633V14.133a.633.633,0,0,1,.633-.633H6.117a.633.633,0,0,1,.633.633Zm0-5.062a.633.633,0,0,1-.633.633H4.008a.633.633,0,0,1-.633-.633V9.07a.633.633,0,0,1,.633-.633H6.117a.633.633,0,0,1,.633.633ZM13.5,21.3a.633.633,0,0,1-.633.633H10.758a.633.633,0,0,1-.633-.633V19.2a.633.633,0,0,1,.633-.633h2.109a.633.633,0,0,1,.633.633Zm0-5.062a.633.633,0,0,1-.633.633H10.758a.633.633,0,0,1-.633-.633V14.133a.633.633,0,0,1,.633-.633h2.109a.633.633,0,0,1,.633.633Zm0-5.062a.633.633,0,0,1-.633.633H10.758a.633.633,0,0,1-.633-.633V9.07a.633.633,0,0,1,.633-.633h2.109a.633.633,0,0,1,.633.633Zm8.438,5.063a.633.633,0,0,1-.633.633H19.2a.633.633,0,0,1-.633-.633V14.133A.633.633,0,0,1,19.2,13.5H21.3a.633.633,0,0,1,.633.633Zm0-5.062a.633.633,0,0,1-.633.633H19.2a.633.633,0,0,1-.633-.633V9.07a.633.633,0,0,1,.633-.633H21.3a.633.633,0,0,1,.633.633Zm0-5.062a.633.633,0,0,1-.633.633H19.2a.633.633,0,0,1-.633-.633V4.008a.633.633,0,0,1,.633-.633H21.3a.633.633,0,0,1,.633.633ZM30.375,21.3a.633.633,0,0,1-.633.633H27.633A.633.633,0,0,1,27,21.3V19.2a.633.633,0,0,1,.633-.633h2.109a.633.633,0,0,1,.633.633Zm0-5.062a.633.633,0,0,1-.633.633H27.633A.633.633,0,0,1,27,16.242V14.133a.633.633,0,0,1,.633-.633h2.109a.633.633,0,0,1,.633.633Z" fill="#06f"/>
</svg>
