<svg xmlns="http://www.w3.org/2000/svg" width="25.497" height="24.958" viewBox="0 0 25.497 24.958">
  <path id="Icon_metro-tools" data-name="Icon metro-tools" d="M30.213,9.713a6.348,6.348,0,0,1-9,7.964l-1.756,1.918,1.253,1.258.749-.749a.979.979,0,0,1,1.386,0l6.072,6.134a.979.979,0,0,1,0,1.386l-2.771,2.771a.979.979,0,0,1-1.386,0L18.69,24.261a.979.979,0,0,1,0-1.386l.684-.684-1.194-1.2-8.4,9.173a1.959,1.959,0,0,1-2.771,0l-.693-.693a1.959,1.959,0,0,1,0-2.771l9.566-8.011-6.353-6.37H7.525L5.2,8.587,7.071,6.715,10.89,9.053l.025,1.965,6.427,6.452,1.87-1.565A6.354,6.354,0,0,1,26.74,6.256l-4.117,4.06,3.465,3.465,4.125-4.068ZM8.617,27.681a.98.98,0,1,0,0,1.387A.98.98,0,0,0,8.617,27.681Z" transform="translate(-5.202 -5.785)" fill="#06f"/>
</svg>
