<svg xmlns="http://www.w3.org/2000/svg" width="17.529" height="12.325" viewBox="0 0 17.529 12.325">
  <path id="Icon_awesome-youtube" data-name="Icon awesome-youtube" d="M18.213,6.428a2.2,2.2,0,0,0-1.55-1.56A52.052,52.052,0,0,0,9.815,4.5a52.052,52.052,0,0,0-6.849.369,2.2,2.2,0,0,0-1.55,1.56,23.106,23.106,0,0,0-.366,4.247,23.106,23.106,0,0,0,.366,4.247,2.17,2.17,0,0,0,1.55,1.535,52.052,52.052,0,0,0,6.849.369,52.052,52.052,0,0,0,6.849-.369,2.17,2.17,0,0,0,1.55-1.535,23.106,23.106,0,0,0,.366-4.247,23.106,23.106,0,0,0-.366-4.247ZM8.022,13.281V8.069L12.6,10.675,8.022,13.281Z" transform="translate(-1.05 -4.5)" fill="#06f"/>
</svg>
