<?xml version="1.0" encoding="UTF-8" standalone="no"?>
<svg
   xmlns:dc="http://purl.org/dc/elements/1.1/"
   xmlns:cc="http://creativecommons.org/ns#"
   xmlns:rdf="http://www.w3.org/1999/02/22-rdf-syntax-ns#"
   xmlns:svg="http://www.w3.org/2000/svg"
   xmlns="http://www.w3.org/2000/svg"
   xmlns:sodipodi="http://sodipodi.sourceforge.net/DTD/sodipodi-0.dtd"
   xmlns:inkscape="http://www.inkscape.org/namespaces/inkscape"
   width="24"
   height="24"
   viewBox="0 0 24 24"
   version="1.1"
   id="svg4"
   sodipodi:docname="github.svg"
   inkscape:version="0.92.4 (5da689c313, 2019-01-14)">
  <metadata
     id="metadata10">
    <rdf:RDF>
      <cc:Work
         rdf:about="">
        <dc:format>image/svg+xml</dc:format>
        <dc:type
           rdf:resource="http://purl.org/dc/dcmitype/StillImage" />
      </cc:Work>
    </rdf:RDF>
  </metadata>
  <defs
     id="defs8" />
  <sodipodi:namedview
     pagecolor="#ffffff"
     bordercolor="#666666"
     borderopacity="1"
     objecttolerance="10"
     gridtolerance="10"
     guidetolerance="10"
     inkscape:pageopacity="0"
     inkscape:pageshadow="2"
     inkscape:window-width="1207"
     inkscape:window-height="841"
     id="namedview6"
     showgrid="false"
     inkscape:zoom="19.666667"
     inkscape:cx="10.272871"
     inkscape:cy="13.281961"
     inkscape:window-x="3271"
     inkscape:window-y="241"
     inkscape:window-maximized="0"
     inkscape:current-layer="svg4" />
  <path
     d="M12 0c-6.626 0-12 5.373-12 12 0 5.302 3.438 9.8 8.207 11.387.599.111.793-.261.793-.577v-2.234c-3.338.726-4.033-1.416-4.033-1.416-.546-1.387-1.333-1.756-1.333-1.756-1.089-.745.083-.729.083-.729 1.205.084 1.839 1.237 1.839 1.237 1.07 1.834 2.807 1.304 3.492.997.107-.775.418-1.305.762-1.604-2.665-.305-5.467-1.334-5.467-5.931 0-1.311.469-2.381 1.236-3.221-.124-.303-.535-1.524.117-3.176 0 0 1.008-.322 3.301 1.23.957-.266 1.983-.399 3.003-.404 1.02.005 2.047.138 3.006.404 2.291-1.552 3.297-1.23 3.297-1.23.653 1.653.242 2.874.118 3.176.77.84 1.235 1.911 1.235 3.221 0 4.609-2.807 5.624-5.479 5.921.43.372.823 1.102.823 2.222v3.293c0 .319.192.694.801.576 4.765-1.589 8.199-6.086 8.199-11.386 0-6.627-5.373-12-12-12z"
     id="path2" />
  <path
     style="opacity:1;fill:#0f4bff;fill-opacity:1;fill-rule:nonzero;stroke:none;stroke-width:0.0000123;stroke-linecap:round;stroke-linejoin:round;stroke-miterlimit:4;stroke-dasharray:none;stroke-opacity:1;paint-order:normal"
     d="M 7.7864304,23.204128 C 7.1723314,22.978216 6.0186845,22.388435 5.4482975,22.0088 4.7306432,21.531148 4.259519,21.14749 3.6219884,20.521553 1.8029826,18.735628 0.656409,16.551891 0.1993005,14.002784 0.08245957,13.35121 0.06654962,13.123625 0.06244767,12.045157 0.05885541,11.100695 0.07826252,10.698465 0.14829499,10.265896 0.73099363,6.6667425 2.7429724,3.6479528 5.816126,1.761835 8.2718578,0.25465375 11.333415,-0.30731133 14.167786,0.22884332 19.311853,1.201904 23.16873,5.296041 23.886255,10.545157 c 0.0851,0.622513 0.08501,2.276689 -1.52e-4,2.898305 -0.390866,2.853235 -1.601136,5.257196 -3.622267,7.194916 -0.932489,0.894005 -1.906994,1.571602 -3.070636,2.135089 -1.338471,0.648147 -1.857974,0.74046 -2.070868,0.367982 -0.04815,-0.08425 -0.07217,-0.653459 -0.09382,-2.22341 -0.02451,-1.777846 -0.04277,-2.157537 -0.115947,-2.410937 -0.107306,-0.371604 -0.292405,-0.745664 -0.496494,-1.003348 -0.08532,-0.107736 -0.132604,-0.195885 -0.105067,-0.195885 0.02754,0 0.309756,-0.04462 0.627154,-0.09915 2.806617,-0.482187 4.267927,-1.891398 4.647863,-4.482153 0.118863,-0.810516 0.08116,-2.150551 -0.07568,-2.689887 C 19.357861,9.5123228 19.056107,8.9107674 18.730355,8.4817476 L 18.456993,8.1217277 18.525979,7.9224662 C 18.750225,7.2747469 18.72371,6.1892183 18.463525,5.3655876 18.319028,4.9081714 18.344529,4.924911 17.828803,4.9489412 17.267507,4.9750947 16.440638,5.293976 15.561835,5.8231949 L 14.984203,6.1710474 14.55741,6.069684 C 12.937653,5.684993 10.910425,5.695944 9.3182467,6.0979867 L 9.019554,6.1734098 8.7080772,5.977914 C 7.8047604,5.4109557 6.9467121,5.047807 6.3083228,4.962275 5.7724582,4.8904794 5.6773165,4.9280097 5.5661568,5.2550355 5.3034784,6.0278238 5.2498999,7.1536216 5.4436531,7.8291072 L 5.5323926,8.138481 5.271476,8.4831998 C 4.9140406,8.9554374 4.622554,9.5554349 4.4689398,10.135145 c -0.1136468,0.42888 -0.128915,0.588322 -0.1293424,1.35069 -0.00191,3.412651 1.6067515,5.285947 4.9578455,5.773429 L 9.7406594,17.323734 9.590128,17.49518 C 9.374187,17.741127 9.2317638,18.03779 9.1067456,18.502054 L 8.9974038,18.908103 8.6461541,19.031339 C 8.1504219,19.205268 7.2599111,19.213357 6.843599,19.047712 6.4231358,18.880415 5.9978873,18.510364 5.6893775,18.043307 5.5422682,17.820596 5.2949624,17.507505 5.139809,17.347549 4.6203772,16.81204 3.7867925,16.521404 3.3244151,16.714598 c -0.3166285,0.132296 -0.2257035,0.340629 0.3203377,0.73398 0.5737619,0.41332 0.8318481,0.747524 1.2475161,1.615451 0.2256315,0.471125 0.3429208,0.649851 0.5790117,0.882306 0.6353028,0.625515 1.6194411,0.899487 2.7701506,0.771175 0.2765248,-0.03083 0.5561294,-0.06945 0.6213438,-0.08582 l 0.1185706,-0.02976 v 1.154608 c 0,0.936957 -0.014839,1.185879 -0.078721,1.3205 -0.1525612,0.321499 -0.4848768,0.359337 -1.1161937,0.127091 z"
     id="path4548"
     inkscape:connector-curvature="0" />
</svg>
