<svg xmlns="http://www.w3.org/2000/svg" width="15.245" height="15.245" viewBox="0 0 15.245 15.245">
  <path id="Icon_awesome-instagram" data-name="Icon awesome-instagram" d="M7.619,5.952A3.909,3.909,0,1,0,11.527,9.86,3.9,3.9,0,0,0,7.619,5.952Zm0,6.45A2.541,2.541,0,1,1,10.159,9.86,2.545,2.545,0,0,1,7.619,12.4ZM12.6,5.792a.911.911,0,1,1-.911-.912A.909.909,0,0,1,12.6,5.792Zm2.588.925a4.512,4.512,0,0,0-1.231-3.194,4.54,4.54,0,0,0-3.194-1.231c-1.258-.071-5.03-.071-6.288,0A4.533,4.533,0,0,0,1.279,3.519,4.527,4.527,0,0,0,.048,6.714c-.071,1.259-.071,5.031,0,6.29A4.512,4.512,0,0,0,1.279,16.2a4.546,4.546,0,0,0,3.194,1.231c1.258.071,5.03.071,6.288,0A4.51,4.51,0,0,0,13.955,16.2,4.542,4.542,0,0,0,15.186,13c.071-1.259.071-5.028,0-6.286Zm-1.626,7.637A2.572,2.572,0,0,1,12.112,15.8a16.794,16.794,0,0,1-4.493.306A16.925,16.925,0,0,1,3.126,15.8a2.572,2.572,0,0,1-1.449-1.449A16.8,16.8,0,0,1,1.371,9.86a16.936,16.936,0,0,1,.306-4.494A2.572,2.572,0,0,1,3.126,3.917a16.794,16.794,0,0,1,4.493-.306,16.925,16.925,0,0,1,4.493.306,2.572,2.572,0,0,1,1.449,1.449,16.8,16.8,0,0,1,.306,4.494A16.8,16.8,0,0,1,13.561,14.354Z" transform="translate(0.005 -2.238)" fill="#06f"/>
</svg>
