<svg xmlns="http://www.w3.org/2000/svg" width="33.75" height="21.477" viewBox="0 0 33.75 21.477">
  <path id="Icon_material-people" data-name="Icon material-people" d="M24.511,16.7a4.6,4.6,0,1,0-4.6-4.6A4.583,4.583,0,0,0,24.511,16.7Zm-12.273,0a4.6,4.6,0,1,0-4.6-4.6A4.583,4.583,0,0,0,12.239,16.7Zm0,3.068C8.664,19.773,1.5,21.568,1.5,25.142v3.835H22.977V25.142C22.977,21.568,15.813,19.773,12.239,19.773Zm12.273,0c-.445,0-.951.031-1.488.077a6.474,6.474,0,0,1,3.022,5.293v3.835h9.2V25.142C35.25,21.568,28.086,19.773,24.511,19.773Z" transform="translate(-1.5 -7.5)" fill="#06f"/>
</svg>
