<svg xmlns="http://www.w3.org/2000/svg" width="31.815" height="25.452" viewBox="0 0 31.815 25.452">
  <path id="Icon_awesome-robot" data-name="Icon awesome-robot" d="M0,12.726v6.363A1.589,1.589,0,0,0,1.591,20.68H3.182V11.135H1.591A1.589,1.589,0,0,0,0,12.726ZM23.066,4.772H17.5V1.591a1.591,1.591,0,0,0-3.182,0V4.772H8.749A3.976,3.976,0,0,0,4.772,8.749V22.271a3.184,3.184,0,0,0,3.182,3.182H23.862a3.184,3.184,0,0,0,3.182-3.182V8.749A3.976,3.976,0,0,0,23.066,4.772ZM12.726,20.68H9.545V19.089h3.182Zm-1.591-5.965a1.988,1.988,0,1,1,1.988-1.988A1.988,1.988,0,0,1,11.135,14.715ZM17.5,20.68H14.317V19.089H17.5Zm4.772,0H19.089V19.089h3.182ZM20.68,14.715a1.988,1.988,0,1,1,1.988-1.988A1.988,1.988,0,0,1,20.68,14.715Zm9.545-3.579H28.634V20.68h1.591a1.589,1.589,0,0,0,1.591-1.591V12.726A1.589,1.589,0,0,0,30.225,11.135Z" fill="#06f"/>
</svg>
