<svg xmlns="http://www.w3.org/2000/svg" width="31.5" height="25.197" viewBox="0 0 31.5 25.197">
  <path id="Icon_awesome-tshirt" data-name="Icon awesome-tshirt" d="M31.061,4.749,21.48,0c-.989,1.368-3.179,2.323-5.733,2.323S11,1.368,10.013,0L.432,4.749A.793.793,0,0,0,.077,5.807l2.815,5.635A.793.793,0,0,0,3.95,11.8l2.785-1.363a.786.786,0,0,1,1.132.709v12.48A1.573,1.573,0,0,0,9.443,25.2h12.6a1.573,1.573,0,0,0,1.575-1.575V11.137a.788.788,0,0,1,1.132-.709l2.785,1.363a.785.785,0,0,0,1.058-.354l2.82-5.63a.786.786,0,0,0-.349-1.058Z" transform="translate(0.004)" fill="#06f"/>
</svg>
